<svg width="360" height="96" viewBox="0 0 360 96" fill="none" xmlns="http://www.w3.org/2000/svg" role="img" aria-labelledby="title desc">
  <title id="title">FutMatch</title>
  <desc id="desc">FutMatch horizontal logo.</desc>
  <rect x="2" y="2" width="92" height="92" rx="22" fill="#07111F"/>
  <path d="M48 10L78 22V44C78 62.6 65.7 77.4 48 86C30.3 77.4 18 62.6 18 44V22L48 10Z" fill="#122338" stroke="#B7FF2A" stroke-width="4"/>
  <path d="M35 29H62L56 43H68L41 70L47 51H33L35 29Z" fill="#B7FF2A"/>
  <circle cx="48" cy="48" r="12" fill="#07111F" stroke="#F8FAFC" stroke-width="3"/>
  <path d="M48 36V60M36 48H60M39.5 39.5L56.5 56.5M56.5 39.5L39.5 56.5" stroke="#9FB0C3" stroke-width="1.8" stroke-linecap="round"/>
  <text x="114" y="55" fill="#F8FAFC" font-family="Inter, Segoe UI, Arial, sans-serif" font-size="38" font-weight="900" letter-spacing="0">Fut</text>
  <text x="185" y="55" fill="#B7FF2A" font-family="Inter, Segoe UI, Arial, sans-serif" font-size="38" font-weight="900" letter-spacing="0">Match</text>
  <text x="116" y="76" fill="#9FB0C3" font-family="Inter, Segoe UI, Arial, sans-serif" font-size="13" font-weight="700" letter-spacing="0">FUTSAL ENTRE TIMES</text>
</svg>
